<svg xmlns="http://www.w3.org/2000/svg" xmlns:xlink="http://www.w3.org/1999/xlink" width="1000" height="600">
  <defs>
    <circle id='bubble0' cx='0' cy='0' r='70' fill='#ffffff' stroke='#ff0000' stroke-width='15'/>
    <circle id='bubble1' cx='0' cy='0' r='70' fill='#ffffff' stroke='#b51f1f' stroke-width='15'/>
    <circle id='bubble2' cx='0' cy='0' r='70' fill='#ffffff' stroke='#007480' stroke-width='15'/>
    <circle id='bubble3' cx='0' cy='0' r='40' fill='#ffffff' stroke='#007480' stroke-width='10'/>
    <circle id='bubble4' cx='0' cy='0' r='70' fill='#ffffff' stroke='#00a79f' stroke-width='15'/>
    <circle id='bubble5' cx='0' cy='0' r='30' fill='#ffffff' stroke='#00a79f' stroke-width='12'/>
    <circle id='bubble6' cx='0' cy='0' r='40' fill='#ffffff' stroke='#007480' stroke-width='10'/>

    <linearGradient id="myGradient1.2" x1="0" x2="0" y1="0" y2="1"><stop offset="30.0%"     stop-color="#ff0000"/> <stop offset="70.0%" stop-color="#b51f1f"/> </linearGradient>
    <linearGradient id="myGradient1.3" x1="0" x2="0" y1="0" y2="1"><stop offset="30.0%"     stop-color="#ff0000"/> <stop offset="70.0%" stop-color="#007480"/> </linearGradient>
    <linearGradient id="myGradient3.3" x1="0" x2="0" y1="0" y2="1"><stop offset="30.0%"     stop-color="#007480"/> <stop offset="70.0%" stop-color="#007480"/> </linearGradient>
    <linearGradient id="myGradient4.4" x1="0" x2="0" y1="0" y2="1"><stop offset="30.0%"     stop-color="#00a79f"/> <stop offset="70.0%" stop-color="#00a79f"/> </linearGradient>
    <linearGradient id="myGradient4.3" x1="0" x2="0" y1="0" y2="1"><stop offset="30.0%"     stop-color="#00a79f"/> <stop offset="70.0%" stop-color="#007480"/> </linearGradient>
    <linearGradient id="myGradient3.4" x1="0" x2="0" y1="0" y2="1"><stop offset="30.0%"     stop-color="#007480"/> <stop offset="70.0%" stop-color="#00a79f"/> </linearGradient>

    <style>
        .mytext {
          font-style:normal; font-variant:normal; font-weight:normal; font-stretch:normal;
          line-height:125%;
          font-family:"Latin Modern Sans"; -inkscape-font-specification:"Latin Modern Sans";
          font-variant-ligatures:normal; font-variant-caps:normal; font-variant-numeric:normal; font-feature-settings:normal;
          text-align:start; letter-spacing:0px; word-spacing:0px; writing-mode:lr-tb; text-anchor:middle;
          fill-opacity:1; stroke:#FFFFFF;
          stroke-width:0; stroke-linecap:butt; stroke-linejoin:miter; stroke-opacity:1;
          stroke-miterlimit:4; stroke-dasharray:none
        }
    </style>
  </defs>

  <g transform="rotate(-225.0,250,250)"> <path d=" M 290.2608802153539 316.2216846983292 a 30.079576884944636, 30.079576884944636  0 0 0 0 51.404393711843966 h -80.52176043070776 a 30.079576884944636, 30.079576884944636  0 0 0 0 -51.404393711843966 z" fill="url('#myGradient1.2')" /> </g>
  <g transform="rotate(-225.0,250,250)"> <path d=" M 290.2608802153539 316.2216846983292 a 30.079576884944636, 30.079576884944636  0 0 0 0 51.404393711843966 h -80.52176043070776 a 30.079576884944636, 30.079576884944636  0 0 0 0 -51.404393711843966 z" fill="url('#myGradient1.2')" /> </g>
  <g transform="rotate(-135.0,250,250)"> <path d=" M 290.2608802153539 316.2216846983292 a 30.079576884944636, 30.079576884944636  0 0 0 0 51.404393711843966 h -80.52176043070776 a 30.079576884944636, 30.079576884944636  0 0 0 0 -51.404393711843966 z" fill="url('#myGradient1.2')" /> </g>
  <g transform="rotate(45.0,250,250)"> <path d=" M 290.2608802153539 316.2216846983292 a 30.079576884944636, 30.079576884944636  0 0 0 0 51.404393711843966 h -80.52176043070776 a 30.079576884944636, 30.079576884944636  0 0 0 0 -51.404393711843966 z" fill="url('#myGradient1.2')" /> </g>
  <g transform="rotate(-45.0,250,250)"> <path d=" M 290.2608802153539 316.2216846983292 a 30.079576884944636, 30.079576884944636  0 0 0 0 51.404393711843966 h -80.52176043070776 a 30.079576884944636, 30.079576884944636  0 0 0 0 -51.404393711843966 z" fill="url('#myGradient1.3')" /> </g>
  <g transform="rotate(-90.0,380,380)"> <path d=" M 424.81581344374183 443.2281018644062 a 45.07208063307058, 45.07208063307058  0 0 0 0 73.54379627118755 h -89.63162688748363 a 45.07208063307058, 45.07208063307058  0 0 0 0 -73.54379627118755 z" fill="url('#myGradient3.4')" /> </g>
  <g transform="rotate(-38.65980825409009,380,380)"> <path d=" M 343.9687051028671 481.104261735338 a 25.24330071367573, 25.24330071367573  0 0 0 -6.39356882441544 -36.24764342842934 h 84.84972744309668 a 25.24330071367573, 25.24330071367573  0 0 0 -6.39356882441544 36.24764342842934 z" fill="url('#myGradient3.3')" /> </g>
  <g transform="rotate(-141.34019174590992,380,380)"> <path d=" M 343.9687051028671 481.104261735338 a 25.24330071367573, 25.24330071367573  0 0 0 -6.39356882441544 -36.24764342842934 h 84.84972744309668 a 25.24330071367573, 25.24330071367573  0 0 0 -6.39356882441544 36.24764342842934 z" fill="url('#myGradient3.3')" /> </g>
  <g transform="rotate(-71.56505117707799,580,380)"> <path d=" M 559.5190526443405 508.5076202348991 a 31.85239908200444, 31.85239908200444  0 0 0 -6.877165410076857 -55.99704400013696 h 54.716225531472695 a 31.85239908200444, 31.85239908200444  0 0 0 -6.877165410076857 55.99704400013696 z" fill="url('#myGradient4.4')" /> </g>
  <g transform="rotate(-108.43494882292201,580,380)"> <path d=" M 559.5190526443405 508.5076202348991 a 31.85239908200444, 31.85239908200444  0 0 0 -6.877165410076857 -55.99704400013696 h 54.716225531472695 a 31.85239908200444, 31.85239908200444  0 0 0 -6.877165410076857 55.99704400013696 z" fill="url('#myGradient4.4')" /> </g>
  <g transform="rotate(-63.43494882292201,730,430)"> <path d=" M 711.8915557193635 500.6077165073557 a 21.517413049459076, 21.517413049459076  0 0 0 1.3548831722821755 -38.743658539348004 h 33.507122216708524 a 21.517413049459076, 21.517413049459076  0 0 0 1.3548831722821755 38.743658539348004 z" fill="url('#myGradient4.3')" /> </g>
  <g transform="rotate(-116.56505117707799,730,430)"> <path d=" M 711.8915557193635 500.6077165073557 a 21.517413049459076, 21.517413049459076  0 0 0 1.3548831722821755 -38.743658539348004 h 33.507122216708524 a 21.517413049459076, 21.517413049459076  0 0 0 1.3548831722821755 38.743658539348004 z" fill="url('#myGradient4.3')" /> </g>

  <use x="250" y="250" xlink:href="#bubble0" />
  <use x="120" y="120" xlink:href="#bubble1" />
  <use x="380" y="380" xlink:href="#bubble2" />
  <use x="380" y="120" xlink:href="#bubble1" />
  <use x="120" y="380" xlink:href="#bubble1" />
  <use x="580" y="380" xlink:href="#bubble4" />
  <use x="460" y="480" xlink:href="#bubble3" />
  <use x="460" y="280" xlink:href="#bubble3" />
  <use x="730" y="430" xlink:href="#bubble5" />
  <use x="730" y="330" xlink:href="#bubble5" />
  <use x="830" y="480" xlink:href="#bubble6" />
  <use x="830" y="380" xlink:href="#bubble6" />

  <text x="250" y="250" class="mytext" font-size="14px" fill="#000000">
    <tspan x="250" dy="-0.25em"> QML </tspan>
    <tspan x="250" dy="1em"> representations </tspan>
  </text>
  <text x="120" y="120" class="mytext" font-size="22px" fill="#000000">
    <tspan x="120" dy="-0.25em"> model </tspan>
    <tspan x="120" dy="1em"> potentials </tspan>
  </text>
  <text x="120" y="380" class="mytext" font-size="22px" fill="#000000">
    <tspan x="120" dy="-0.25em"> internal </tspan>
    <tspan x="120" dy="1em"> coordinates </tspan>
  </text>
  <text x="380" y="120" class="mytext" font-size="22px" fill="#000000">
    <tspan x="380" dy="-0.25em"> density </tspan>
    <tspan x="380" dy="1em"> of neighbors </tspan>
  </text>
  <text x="380" y="380" class="mytext" font-size="22px" fill="#000000">
    <tspan x="380" dy="-0.25em"> electronic </tspan>
    <tspan x="380" dy="1em"> structure </tspan>
  </text>
  <text x="580" y="380" class="mytext" font-size="25px" fill="#000000">
    <tspan x="580" dy="0.25em"> SPAHM </tspan>
  </text>

</svg>
